<svg id="Camada_1" data-name="Camada 1" xmlns="http://www.w3.org/2000/svg" viewBox="0 0 718.7 958.92"><defs><style>.cls-1{fill:#ccc;}.cls-2{fill:#fff;}</style></defs><title>logo</title><path class="cls-1" d="M1175,459l-9.45-4.8-37-20.2c-.18.45-.35.9-.56,1.33-3.76,8.1-10.37,13.95-17.78,18.65-1.45.92-2.91,1.81-4.36,2.73a80.2,80.2,0,0,1-9.44,8.94c-.93.75-1.87,1.47-2.81,2.18-.62.73-1.26,1.46-1.86,2.2s-1,1.26-1.51,1.9l-.11.14c-.94,1.26-1.88,2.5-2.83,3.75-4.38,5.82-8.88,11.49-13.6,17-9.26,10.88-20.74,23.1-33.81,29.41l8.46,4.6L820.24,667.57l1.06,140.52,467.25-288Z" transform="translate(-569.84 -47)"/><path class="cls-2" d="M800.56,174.57c-7.52-9-12.24-18.56-17.75-28.8-1-2-2.15-3.88-3.36-5.73-.22-.35-.46-.68-.7-1-.44-.45-.88-.85-.89-.86l-.19-.21-1-.59c-.55-.32-1.12-.6-1.68-.89-1,.24-6-2-6.95-2.31-1.9-.54-3.82-1-5.74-1.52a127.18,127.18,0,0,1-12.78-3.79c-20.05-7.46-39.71-16.1-60.37-21.8-3-.84-6.07-1.71-9.14-2.4-1.23-.28-2.48-.49-3.72-.74-.25-.05-.77-.12-1.21-.18a123.71,123.71,0,0,0-13.9-.57c-6,.11-11.89.6-17.81,1.28-1.25.14-2.5.31-3.74.45l-.26,0-8.3,1.19c-6,.87-12.06,1.76-18.12,2.43l-5.07.56-2.7.32c-3.81.44,1-.26,1.26-.17-1.52-.5-5.44.88-7.05,1.21-.75.15-1.5.33-2.25.5a31.4,31.4,0,0,1-20.79,7.21,22.35,22.35,0,0,1-5.3-.83l-1.2.7.09,822.51,121.62,65.4Q691.27,595,691,184a12.75,12.75,0,0,1-.47-2.33,13.29,13.29,0,0,1,.83-6.12,24.33,24.33,0,0,1,.57-4c2.28-10,15.19-18.23,25.18-14.3a81.69,81.69,0,0,0,9.93,3.35c.29.07.75.15,1.25.22,14.54-3.42,30.28,8.33,30.26,23.51a23.86,23.86,0,0,1-.14,2.39c.58.41,1.17.81,1.76,1.2,2.45,1.59,5,3.09,7.45,4.63a397.23,397.23,0,0,1,40.66,28.66l1.52,1.23a19.42,19.42,0,0,1,8.24-8.68c0-.22.07-.44.1-.66q1.26-7.67,2.6-15.34C813.47,190.51,807.11,182.44,800.56,174.57Z" transform="translate(-569.84 -47)"/><polygon class="cls-2" points="478.15 479.47 352.67 413.43 346.07 270.78 590.43 404.18 478.15 479.47"/><polygon class="cls-1" points="272.1 219.26 0 71.33 120.2 0 394.94 149.26 272.1 219.26"/></svg>